<svg width="101" height="93" viewBox="0 0 101 93" fill="none" xmlns="http://www.w3.org/2000/svg">
<path d="M69.3711 3.39741e-07H31.2311C29.0967 -0.000509751 26.9998 0.57338 25.1514 1.66392C23.303 2.75445 21.7684 4.32316 20.702 6.21217L1.63197 39.9601C0.56291 41.8483 0 43.991 0 46.1723C0 48.3536 0.56291 50.4963 1.63197 52.3845L20.702 86.1324C21.7673 88.0231 23.3014 89.5937 25.1499 90.6858C26.9983 91.778 29.0958 92.3533 31.2311 92.3537H69.3711C71.5067 92.354 73.6047 91.7801 75.4545 90.6896C77.3042 89.5992 78.8406 88.0306 79.9091 86.1415L98.9792 52.4391C100.044 50.5495 100.604 48.4073 100.604 46.2269C100.604 44.0466 100.044 41.9044 98.9792 40.0148L79.9091 6.31237C78.853 4.40461 77.3221 2.81596 75.4715 1.70742C73.6209 0.598885 71.5163 0.00984765 69.3711 3.39741e-07Z" fill="url(#paint0_linear)"/>
<path d="M55.1953 20.7772C56.4367 20.7772 57.6272 21.2811 58.505 22.1779C59.3828 23.0747 59.8759 24.291 59.8759 25.5593V35.579C59.8759 36.8473 59.3828 38.0636 58.505 38.9604C57.6272 39.8572 56.4367 40.3611 55.1953 40.3611H45.3884C44.1486 40.3586 42.9603 39.8538 42.0845 38.9572C41.2086 38.0606 40.7167 36.8457 40.7167 35.579V25.5593C40.7167 24.2926 41.2086 23.0777 42.0845 22.1811C42.9603 21.2845 44.1486 20.7797 45.3884 20.7772H55.1953ZM55.1953 16.9971H45.3884C43.1649 16.9971 41.0324 17.8989 39.4594 19.5044C37.8863 21.1098 37.0014 23.2877 36.999 25.5593V35.579C37.0179 37.8427 37.9125 40.007 39.4876 41.5992C41.0627 43.1914 43.1905 44.0823 45.4062 44.0774H55.2132C57.4335 44.0726 59.5615 43.1687 61.1307 41.5637C62.6999 39.9588 63.5824 37.7837 63.5847 35.5152V25.4956C63.5824 23.227 62.6999 21.052 61.1307 19.447C59.5615 17.8421 57.4335 16.9382 55.2132 16.9333L55.1953 16.9971Z" fill="white"/>
<path d="M70.4058 29.1299H30.1974C25.8545 29.1299 22.334 32.7268 22.334 37.1638V65.4283C22.334 69.8653 25.8545 73.4622 30.1974 73.4622H70.4058C74.7487 73.4622 78.2692 69.8653 78.2692 65.4283V37.1638C78.2692 32.7268 74.7487 29.1299 70.4058 29.1299Z" fill="url(#paint1_linear)"/>
<path d="M70.4145 31.0248C72.0082 31.0248 73.5366 31.6716 74.6635 32.8229C75.7904 33.9743 76.4235 35.5358 76.4235 37.1641V65.4013C76.4235 67.0303 75.7907 68.5928 74.6641 69.7456C73.5374 70.8984 72.009 71.5473 70.4145 71.5497H30.1972C28.6011 71.5497 27.0704 70.9019 25.9419 69.7488C24.8133 68.5958 24.1793 67.0319 24.1793 65.4013V37.1641C24.1816 35.535 24.8167 33.9735 25.945 32.8224C27.0733 31.6713 28.6027 31.0248 30.1972 31.0248H70.4145ZM70.4145 27.2446H30.1972C27.6229 27.247 25.1548 28.2929 23.3346 30.1526C21.5143 32.0124 20.4907 34.534 20.4883 37.1641V65.4013C20.486 66.7059 20.7353 67.9981 21.222 69.2042C21.7088 70.4103 22.4234 71.5066 23.3251 72.4304C24.2268 73.3541 25.2978 74.0873 26.4769 74.5879C27.6561 75.0885 28.9203 75.3468 30.1972 75.348H70.4145C72.9888 75.3456 75.4569 74.2998 77.2771 72.44C79.0974 70.5803 80.121 68.0586 80.1234 65.4286V37.1914C80.1258 34.5573 79.1045 32.0301 77.284 30.165C75.4635 28.2998 72.9927 27.2495 70.4145 27.2446Z" fill="white"/>
<path d="M74.1763 30.988L67.57 54.6707C66.8963 55.9769 65.893 57.0753 64.664 57.852C63.435 58.6288 62.0251 59.0557 60.5804 59.0884H40.5653C39.121 59.0538 37.7118 58.6261 36.4832 57.8496C35.2545 57.073 34.2508 55.9757 33.5757 54.6707L25.9619 30.5234" stroke="white" stroke-width="4.6" stroke-linejoin="round"/>
<path d="M46.8594 50.2256H53.2874" stroke="white" stroke-width="4.6" stroke-linecap="round" stroke-linejoin="round"/>
<path d="M54.7764 37.3188H62.2207" stroke="white" stroke-width="4.6" stroke-linecap="round" stroke-linejoin="round"/>
<defs>
<linearGradient id="paint0_linear" x1="11.1625" y1="69.263" x2="90.2704" y2="24.5608" gradientUnits="userSpaceOnUse">
<stop offset="0.02" stop-color="#FF0000"/>
<stop offset="1" stop-color="#9E005D"/>
</linearGradient>
<linearGradient id="paint1_linear" x1="1898.96" y1="3129.29" x2="5408.34" y2="3129.29" gradientUnits="userSpaceOnUse">
<stop offset="0.02" stop-color="#CF2A2A"/>
<stop offset="1" stop-color="#9E005D"/>
</linearGradient>
</defs>
</svg>
