<svg width="102" height="93" viewBox="0 0 102 93" fill="none" xmlns="http://www.w3.org/2000/svg">
<path d="M70.2402 0H31.6183C29.4576 0.000413509 27.335 0.574692 25.4639 1.66513C23.5928 2.75558 22.039 4.32378 20.9586 6.21217L1.65221 39.9601C0.569889 41.8482 0 43.9909 0 46.1722C0 48.3535 0.569889 50.4963 1.65221 52.3844L20.9586 86.1323C22.039 88.0207 23.5928 89.5889 25.4639 90.6793C27.335 91.7698 29.4576 92.3441 31.6183 92.3445H70.2402C72.4009 92.3441 74.5234 91.7698 76.3945 90.6793C78.2656 89.5889 79.8194 88.0207 80.8998 86.1323L100.206 52.4299C101.289 50.5418 101.858 48.3991 101.858 46.2178C101.858 44.0365 101.289 41.8938 100.206 40.0056L80.8998 6.30325C79.8309 4.3979 78.2821 2.81144 76.4102 1.70454C74.5383 0.597635 72.4097 0.00960461 70.2402 0Z" fill="url(#paint0_linear)"/>
<defs>
<linearGradient id="paint0_linear" x1="11.3099" y1="69.2629" x2="90.9178" y2="23.7205" gradientUnits="userSpaceOnUse">
<stop offset="0.02" stop-color="#FF0000"/>
<stop offset="1" stop-color="#9E005D"/>
</linearGradient>
</defs>
</svg>
