<svg width="101" height="92" viewBox="0 0 101 92" fill="none" xmlns="http://www.w3.org/2000/svg">
<path d="M69.3753 0H31.2289C29.0949 0.000411017 26.9984 0.571229 25.1504 1.6551C23.3023 2.73897 21.7676 4.29772 20.7006 6.17473L1.63186 39.7193C0.562872 41.596 0 43.7258 0 45.894C0 48.0621 0.562872 50.192 1.63186 52.0687L20.7006 85.6132C21.7676 87.4902 23.3023 89.049 25.1504 90.1329C26.9984 91.2167 29.0949 91.7876 31.2289 91.788H69.3753C71.5094 91.7876 73.6058 91.2167 75.4539 90.1329C77.302 89.049 78.8366 87.4902 79.9037 85.6132L98.9724 52.114C100.041 50.2372 100.604 48.1074 100.604 45.9393C100.604 43.7711 100.041 41.6413 98.9724 39.7645L79.9037 6.26527C78.848 4.3714 77.3182 2.7945 75.4693 1.69427C73.6205 0.594033 71.5182 0.00954673 69.3753 0Z" fill="url(#paint0_linear)"/>
<path d="M56.7163 41.5755C55.8402 40.6841 54.7993 39.9772 53.6534 39.4956C52.5075 39.0139 51.2792 38.7669 50.0391 38.7688" stroke="white" stroke-width="4.6" stroke-linecap="round" stroke-linejoin="round"/>
<path d="M44.2354 63.9109H56.4575" stroke="white" stroke-width="4.6" stroke-linejoin="round"/>
<path d="M44.2354 68.2295H56.4575" stroke="white" stroke-width="4.6" stroke-linejoin="round"/>
<path d="M64.3915 47.6678C64.3918 45.3243 63.8252 43.0167 62.7416 40.9478C61.6579 38.8789 60.0904 37.1121 58.1769 35.8026C56.2633 34.4931 54.0623 33.6811 51.7673 33.438C49.4723 33.1949 47.1537 33.5281 45.0153 34.4084C42.8768 35.2886 40.984 36.6889 39.5033 38.4862C38.0226 40.2835 36.9994 42.4227 36.5235 44.7157C36.0476 47.0087 36.1337 49.3854 36.7742 51.6367C37.4147 53.888 38.59 55.9451 40.1967 57.627C42.1223 59.646 43.7626 62.1539 43.7626 64.9335V67.043C43.7302 67.9345 43.8751 68.8236 44.1886 69.6569C44.5022 70.4903 44.978 71.2509 45.5876 71.8933C46.1971 72.5357 46.928 73.0467 47.7364 73.3957C48.5448 73.7447 49.4143 73.9246 50.2927 73.9246C51.1712 73.9246 52.0406 73.7447 52.849 73.3957C53.6575 73.0467 54.3883 72.5357 54.9979 71.8933C55.6075 71.2509 56.0832 70.4903 56.3968 69.6569C56.7104 68.8236 56.8553 67.9345 56.8228 67.043V64.9244C56.8228 62.1087 58.4721 59.637 60.3887 57.6179C62.9531 54.9606 64.39 51.3885 64.3915 47.6678Z" stroke="white" stroke-width="4.6" stroke-linejoin="round"/>
<path d="M29.8291 68.3108L35.6147 62.4438" stroke="white" stroke-width="4.6" stroke-linecap="round" stroke-linejoin="round"/>
<path d="M21.3516 47.5154H29.5264" stroke="white" stroke-width="4.6" stroke-linecap="round" stroke-linejoin="round"/>
<path d="M29.8291 26.7256L35.6147 32.6015" stroke="white" stroke-width="4.6" stroke-linecap="round" stroke-linejoin="round"/>
<path d="M50.3066 18.1167V26.4191" stroke="white" stroke-width="4.6" stroke-linecap="round" stroke-linejoin="round"/>
<path d="M70.7749 26.7256L64.998 32.6015" stroke="white" stroke-width="4.6" stroke-linecap="round" stroke-linejoin="round"/>
<path d="M79.253 47.5154H71.0781" stroke="white" stroke-width="4.6" stroke-linecap="round" stroke-linejoin="round"/>
<path d="M70.7749 68.3108L64.998 62.4438" stroke="white" stroke-width="4.6" stroke-linecap="round" stroke-linejoin="round"/>
<defs>
<linearGradient id="paint0_linear" x1="11.1707" y1="68.8364" x2="90.0436" y2="23.9998" gradientUnits="userSpaceOnUse">
<stop offset="0.02" stop-color="#FF0000"/>
<stop offset="1" stop-color="#9E005D"/>
</linearGradient>
</defs>
</svg>
