<svg width="50" height="50" viewBox="0 0 50 50" fill="none" xmlns="http://www.w3.org/2000/svg">
<circle cx="25" cy="25" r="24.5" fill="#F6F7F8" stroke="#D22222"/>
<path d="M31.2803 37C30.4895 37 29.6404 36.9032 28.7423 36.7065C25.7233 36.0468 22.4278 34.3227 19.4622 31.8517C16.497 29.3804 14.1861 26.433 12.956 23.552C11.6064 20.3922 11.6882 17.6274 13.1857 15.7671C13.2293 15.7137 13.2293 15.7137 15.7893 13.0604L16.8128 12L22.4651 19.646L20.4697 22.1247C21.4419 23.4955 22.5908 24.9576 24.0402 26.1655C25.4896 27.3735 27.1253 28.2312 28.6378 28.931L30.6479 26.4343L39 30.7416L38.2013 31.9428C36.2416 34.8913 36.2416 34.8913 36.1974 34.9457C35.1071 36.2999 33.4047 37 31.2803 37ZM15.0999 17.4268C14.2738 18.4968 14.3311 20.3541 15.2613 22.533C16.3356 25.048 18.3932 27.6549 21.0553 29.8732C23.7175 32.0914 26.6349 33.6302 29.2702 34.2062C31.5517 34.705 33.352 34.3968 34.2227 33.3618C34.3471 33.1752 34.8174 32.468 35.3205 31.7115L34.13 34.7134L31.2803 34.9457H26.9795C25.0892 34.106 22.4497 32.3912 20.4697 30.7416C18.4897 29.0916 16.9706 26.2223 15.7893 24.5025L13.1857 20.4529L15.5386 15.7502L16.5602 15.9126C15.8898 16.6074 15.2597 17.2605 15.0999 17.4268Z" fill="#D22222"/>
</svg>
