<svg width="101" height="93" viewBox="0 0 101 93" fill="none" xmlns="http://www.w3.org/2000/svg">
<path d="M69.3753 0H31.2289C29.0949 0.000413509 26.9985 0.574692 25.1504 1.66513C23.3023 2.75558 21.7676 4.32378 20.7006 6.21217L1.63186 39.9601C0.562872 41.8482 0 43.991 0 46.1723C0 48.3536 0.562872 50.4963 1.63186 52.3844L20.7006 86.1324C21.7676 88.0208 23.3023 89.589 25.1504 90.6794C26.9985 91.7699 29.0949 92.3441 31.2289 92.3445H69.3753C71.5094 92.3441 73.6058 91.7699 75.4539 90.6794C77.302 89.589 78.8366 88.0208 79.9037 86.1324L98.9724 52.43C100.041 50.5418 100.604 48.3991 100.604 46.2178C100.604 44.0365 100.041 41.8938 98.9724 40.0056L79.9037 6.30326C78.848 4.39791 77.3182 2.81144 75.4693 1.70454C73.6205 0.597635 71.5182 0.00960462 69.3753 0Z" fill="url(#paint0_linear)"/>
<path d="M47.3911 74.0906C46.5596 74.0882 45.7628 73.7497 45.1748 73.1489C44.5868 72.5481 44.2555 71.734 44.2531 70.8843V65.9019C43.1054 65.5344 41.9925 65.0619 40.9279 64.49L37.4779 68.0151C37.1861 68.3158 36.839 68.5545 36.4564 68.7175C36.0739 68.8804 35.6636 68.9642 35.2492 68.9642C34.8347 68.9642 34.4244 68.8804 34.0419 68.7175C33.6594 68.5545 33.3122 68.3158 33.0205 68.0151L28.9732 63.8159C28.383 63.2115 28.0517 62.3925 28.0517 61.5388C28.0517 60.685 28.383 59.866 28.9732 59.2616L32.3697 55.7638C31.8166 54.6741 31.3572 53.5373 30.9968 52.3662H26.1204C25.2874 52.3638 24.4892 52.024 23.901 51.4213C23.3127 50.8185 22.9824 50.002 22.9824 49.1508V43.2028C22.9848 42.3532 23.3161 41.5391 23.9041 40.9383C24.4921 40.3375 25.2889 39.9989 26.1204 39.9965H30.9968C31.3581 38.8376 31.8174 37.7129 32.3697 36.6354L28.9732 33.0739C28.383 32.4694 28.0517 31.6505 28.0517 30.7967C28.0517 29.9429 28.383 29.124 28.9732 28.5195L33.0829 24.3203C33.3746 24.0196 33.7218 23.7809 34.1043 23.618C34.4868 23.4551 34.8972 23.3712 35.3116 23.3712C35.726 23.3712 36.1363 23.4551 36.5188 23.618C36.9014 23.7809 37.2485 24.0196 37.5403 24.3203L40.9903 27.8454C42.0534 27.2703 43.1666 26.7977 44.3155 26.4336V21.4602C44.3179 20.6106 44.6492 19.7964 45.2372 19.1957C45.8252 18.5949 46.622 18.2563 47.4535 18.2539H53.2749C54.1064 18.2563 54.9032 18.5949 55.4912 19.1957C56.0792 19.7964 56.4105 20.6106 56.4129 21.4602V26.4427C57.5612 26.8085 58.6743 27.2811 59.7381 27.8545L63.1881 24.3295C63.4793 24.0276 63.8262 23.7879 64.2088 23.6243C64.5914 23.4607 65.0021 23.3765 65.4168 23.3765C65.8316 23.3765 66.2422 23.4607 66.6248 23.6243C67.0074 23.7879 67.3544 24.0276 67.6455 24.3295L71.7642 28.5286C72.0596 28.8261 72.2942 29.1806 72.4543 29.5715C72.6144 29.9624 72.6969 30.382 72.6969 30.8058C72.6969 31.2296 72.6144 31.6491 72.4543 32.0401C72.2942 32.431 72.0596 32.7855 71.7642 33.083L68.1982 36.6354C68.7559 37.7272 69.2183 38.8672 69.58 40.0421H74.4475C75.2806 40.0421 76.0797 40.3796 76.6696 40.9806C77.2595 41.5817 77.5921 42.3972 77.5944 43.2484V49.1873C77.5921 50.0393 77.2598 50.8558 76.6701 51.4582C76.0805 52.0607 75.2814 52.4003 74.4475 52.4027H69.6157C69.235 53.5612 68.7609 54.6854 68.1982 55.7638L71.6483 59.2798C72.2282 59.8887 72.5487 60.7074 72.5397 61.557C72.5445 61.9764 72.4681 62.3926 72.3152 62.7818C72.1622 63.171 71.9356 63.5255 71.6483 63.8251L67.5385 68.0242C66.9459 68.6162 66.1475 68.9438 65.3188 68.9351C64.9081 68.9414 64.5003 68.8641 64.1192 68.7077C63.7381 68.5514 63.3913 68.319 63.099 68.0242L59.649 64.5082C58.5824 65.0734 57.4698 65.5427 56.3237 65.911V70.8843C56.3214 71.734 55.99 72.5481 55.402 73.1489C54.8141 73.7497 54.0173 74.0882 53.1857 74.0906H47.3911ZM50.2973 38.8488C48.8868 38.8488 47.5079 39.2762 46.3351 40.0769C45.1623 40.8776 44.2482 42.0157 43.7084 43.3472C43.1686 44.6787 43.0274 46.1439 43.3025 47.5575C43.5777 48.971 44.257 50.2694 45.2544 51.2885C46.2518 52.3076 47.5225 53.0017 48.906 53.2828C50.2894 53.564 51.7234 53.4197 53.0266 52.8682C54.3297 52.3166 55.4436 51.3826 56.2272 50.1843C57.0109 48.9859 57.4292 47.5771 57.4292 46.1358C57.4292 44.2032 56.6778 42.3497 55.3403 40.9831C54.0028 39.6166 52.1888 38.8488 50.2973 38.8488Z" fill="url(#paint1_linear)"/>
<path d="M53.2123 19.9386C53.6071 19.9386 53.9858 20.0989 54.265 20.3841C54.5442 20.6694 54.701 21.0563 54.701 21.4598V26.925C54.7139 27.1347 54.7903 27.3351 54.9197 27.4983C55.0491 27.6615 55.2251 27.7795 55.4231 27.8359C56.7698 28.2616 58.0648 28.8422 59.2832 29.5666C59.4373 29.6493 59.6085 29.693 59.7825 29.6941C60.0355 29.6928 60.2783 29.5916 60.46 29.4117L64.2666 25.5223C64.5457 25.2375 64.9241 25.0775 65.3185 25.0775C65.713 25.0775 66.0913 25.2375 66.3705 25.5223L70.4891 29.7214C70.7684 30.0082 70.9252 30.3963 70.9252 30.8008C70.9252 31.2053 70.7684 31.5934 70.4891 31.8802L66.6825 35.7696C66.5348 35.9232 66.4394 36.1213 66.4105 36.3346C66.3816 36.5478 66.4207 36.765 66.522 36.9537C67.2281 38.2138 67.7905 39.5524 68.198 40.9434C68.2523 41.1454 68.3678 41.3247 68.528 41.4556C68.6881 41.5865 68.8847 41.6623 69.0895 41.6721H74.4384C74.8356 41.6721 75.2165 41.8333 75.4974 42.1203C75.7783 42.4073 75.936 42.7965 75.936 43.2024V49.1413C75.936 49.3422 75.8973 49.5412 75.822 49.7269C75.7468 49.9125 75.6365 50.0812 75.4974 50.2233C75.3583 50.3654 75.1932 50.4781 75.0115 50.555C74.8298 50.6319 74.635 50.6715 74.4384 50.6715H69.0895C68.8835 50.6819 68.6861 50.759 68.5258 50.8917C68.3656 51.0243 68.2507 51.2056 68.198 51.4093C67.8088 52.7912 67.2675 54.1235 66.5844 55.3807C66.4777 55.5706 66.4347 55.7909 66.4621 56.008C66.4894 56.2251 66.5856 56.4271 66.736 56.5831L70.5426 60.4634C70.8219 60.7502 70.9786 61.1383 70.9786 61.5428C70.9786 61.9474 70.8219 62.3354 70.5426 62.6222L66.4151 66.8213C66.1359 67.1061 65.7576 67.2661 65.3631 67.2661C64.9686 67.2661 64.5903 67.1061 64.3112 66.8213L60.5046 62.941C60.3226 62.7547 60.0757 62.6499 59.8181 62.6495C59.6521 62.6462 59.4884 62.6904 59.3456 62.777C58.1097 63.4766 56.7997 64.0297 55.441 64.4257C55.2429 64.4821 55.0669 64.6001 54.9375 64.7633C54.8081 64.9266 54.7317 65.1269 54.7189 65.3366V70.8019C54.7189 71.2053 54.562 71.5922 54.2828 71.8775C54.0036 72.1627 53.6249 72.323 53.2301 72.323H47.3909C47.0111 72.3213 46.6464 72.1713 46.3713 71.9037C46.0962 71.6362 45.9315 71.2713 45.9111 70.8838V65.4186C45.8982 65.2089 45.8218 65.0085 45.6924 64.8453C45.563 64.6821 45.387 64.5641 45.189 64.5077C43.8355 64.1171 42.5311 63.5669 41.3021 62.8681C41.1168 62.7575 40.9008 62.7127 40.6879 62.7407C40.475 62.7688 40.2772 62.868 40.1254 63.023L36.3277 66.9033C36.1885 67.0457 36.0231 67.1585 35.841 67.2351C35.6589 67.3117 35.4637 67.3506 35.2668 67.3496C35.0711 67.3515 34.877 67.3129 34.6963 67.2362C34.5155 67.1595 34.3518 67.0463 34.2149 66.9033L30.1052 62.7042C29.9658 62.5628 29.8552 62.3946 29.7797 62.2094C29.7043 62.0241 29.6654 61.8254 29.6654 61.6248C29.6654 61.4241 29.7043 61.2255 29.7797 61.0402C29.8552 60.855 29.9658 60.6868 30.1052 60.5454L33.9028 56.6651C34.0518 56.5123 34.1481 56.3141 34.177 56.1004C34.206 55.8868 34.1661 55.6693 34.0633 55.4809C33.3765 54.2192 32.835 52.8804 32.4497 51.4913C32.3918 51.2803 32.2683 51.0942 32.0978 50.9612C31.9274 50.8281 31.7193 50.7552 31.5048 50.7535H26.1559C25.7602 50.7511 25.3816 50.5888 25.1026 50.3021C24.8237 50.0154 24.6671 49.6275 24.6671 49.2232V43.2024C24.6671 42.7981 24.8237 42.4102 25.1026 42.1235C25.3816 41.8368 25.7602 41.6745 26.1559 41.6721H31.5048C31.7173 41.6719 31.924 41.6006 32.093 41.469C32.2621 41.3374 32.3843 41.1527 32.4408 40.9434C32.8268 39.5603 33.3682 38.2277 34.0544 36.972C34.1612 36.7822 34.2042 36.5618 34.1768 36.3447C34.1494 36.1276 34.0532 35.9256 33.9028 35.7696L30.1052 31.8802C29.9658 31.7388 29.8552 31.5706 29.7797 31.3854C29.7043 31.2001 29.6654 31.0015 29.6654 30.8008C29.6654 30.6001 29.7043 30.4015 29.7797 30.2162C29.8552 30.031 29.9658 29.8628 30.1052 29.7214L34.2149 25.5223C34.3518 25.3793 34.5155 25.2661 34.6963 25.1894C34.877 25.1127 35.0711 25.0741 35.2668 25.0759C35.4637 25.075 35.6589 25.1139 35.841 25.1905C36.0231 25.2671 36.1885 25.3799 36.3277 25.5223L40.1254 29.4117C40.2159 29.5027 40.3232 29.5745 40.441 29.623C40.5588 29.6714 40.6848 29.6956 40.8118 29.6941C40.9766 29.6962 41.1392 29.6554 41.2843 29.5757C42.5181 28.8694 43.8286 28.313 45.189 27.9179C45.387 27.8615 45.563 27.7435 45.6924 27.5803C45.8218 27.417 45.8982 27.2167 45.9111 27.007V21.5418C45.9111 21.342 45.9496 21.1442 46.0244 20.9596C46.0992 20.7751 46.2089 20.6074 46.3471 20.4661C46.4854 20.3249 46.6495 20.2128 46.8301 20.1364C47.0107 20.0599 47.2043 20.0206 47.3998 20.0206H53.2212L53.2123 19.9386ZM50.2971 55.1804C52.0398 55.175 53.7418 54.642 55.1881 53.6489C56.6345 52.6557 57.7604 51.2469 58.4236 49.6003C59.0868 47.9538 59.2576 46.1433 58.9144 44.3976C58.5712 42.6519 57.7294 41.0493 56.4953 39.7922C55.2612 38.5351 53.6902 37.6798 51.9806 37.3344C50.2711 36.989 48.4997 37.169 46.8902 37.8516C45.2807 38.5343 43.9053 39.6889 42.9377 41.1698C41.9701 42.6506 41.4537 44.3912 41.4537 46.1718C41.4537 48.5594 42.3813 50.8494 44.0329 52.5386C45.6844 54.2278 47.9247 55.1779 50.2615 55.1804H50.2971ZM53.2123 16.5957H47.3909C46.122 16.5981 44.9057 17.1142 44.0084 18.031C43.1112 18.9478 42.606 20.1906 42.6037 21.4871V25.2672C42.149 25.4494 41.7122 25.6316 41.2575 25.8411L38.6455 23.1722C38.2015 22.7161 37.6736 22.3542 37.0923 22.1073C36.5109 21.8603 35.8875 21.7332 35.2579 21.7332C34.6283 21.7332 34.0049 21.8603 33.4235 22.1073C32.8422 22.3542 32.3143 22.7161 31.8703 23.1722L27.7606 27.344C26.8634 28.2627 26.3596 29.5075 26.3596 30.8053C26.3596 32.1032 26.8634 33.348 27.7606 34.2667L30.3726 36.9355C30.1765 37.3819 29.9893 37.8464 29.8199 38.311H26.1202C24.8513 38.3134 23.635 38.8295 22.7378 39.7463C21.8405 40.6631 21.3354 41.9058 21.333 43.2024V49.1413C21.333 50.4394 21.8371 51.6845 22.7346 52.6032C23.6321 53.522 24.8498 54.0393 26.1202 54.0418H29.8645C30.0338 54.4972 30.221 54.9526 30.4172 55.4081L27.8051 58.086C26.908 59.0048 26.4042 60.2496 26.4042 61.5474C26.4042 62.8452 26.908 64.09 27.8051 65.0087L31.9149 69.2078C32.814 70.1245 34.0323 70.6393 35.3025 70.6393C36.5726 70.6393 37.7909 70.1245 38.6901 69.2078L41.3021 66.5299C41.7479 66.7394 42.1936 66.9306 42.6483 67.1037V70.8838C42.6435 72.1773 43.1393 73.4202 44.0278 74.3416C44.9162 75.263 46.1251 75.7881 47.3909 75.8026H53.2123C54.4812 75.8001 55.6975 75.284 56.5948 74.3672C57.492 73.4504 57.9971 72.2077 57.9995 70.9112V67.1037C58.4542 66.9306 58.891 66.7394 59.3456 66.5299L61.9577 69.2078C62.4027 69.6619 62.931 70.0219 63.5122 70.2673C64.0935 70.5126 64.7164 70.6386 65.3453 70.6379C65.9753 70.6404 66.5994 70.5144 67.1811 70.2673C67.7628 70.0201 68.2904 69.6569 68.7329 69.1987L72.8426 65.0087C73.289 64.555 73.6432 64.0156 73.8849 63.4216C74.1266 62.8276 74.251 62.1907 74.251 61.5474C74.251 60.9041 74.1266 60.2671 73.8849 59.6731C73.6432 59.0791 73.289 58.5397 72.8426 58.086L70.2306 55.4081C70.4267 54.9617 70.6139 54.4972 70.7833 54.0418H74.4829C75.7534 54.0393 76.971 53.522 77.8686 52.6032C78.7661 51.6845 79.2702 50.4394 79.2702 49.1413V43.2024C79.2678 41.9058 78.7627 40.6631 77.8654 39.7463C76.9682 38.8295 75.7519 38.3134 74.4829 38.311H70.7833C70.6139 37.8464 70.4267 37.4001 70.2306 36.9355L72.8426 34.2667C73.2892 33.8122 73.6436 33.2721 73.8855 32.6773C74.1273 32.0825 74.2518 31.4448 74.2518 30.8008C74.2518 30.1567 74.1273 29.519 73.8855 28.9243C73.6436 28.3295 73.2892 27.7894 72.8426 27.3349L68.7329 23.1449C68.2889 22.6888 67.761 22.3269 67.1796 22.0799C66.5983 21.833 65.9749 21.7059 65.3453 21.7059C64.7157 21.7059 64.0923 21.833 63.5109 22.0799C62.9296 22.3269 62.4017 22.6888 61.9577 23.1449L59.3456 25.8138C58.8999 25.6043 58.4542 25.413 57.9995 25.2399V21.4598C57.9901 20.168 57.4819 18.9322 56.5854 18.0213C55.6889 17.1104 54.4766 16.5981 53.2123 16.5957ZM50.2971 51.8101C49.2061 51.8083 48.1401 51.4761 47.2338 50.8555C46.3275 50.2348 45.6216 49.3536 45.2053 48.3232C44.789 47.2928 44.681 46.1594 44.8949 45.0662C45.1088 43.9731 45.6351 42.9693 46.4072 42.1817C47.1793 41.3941 48.1626 40.858 49.2328 40.6412C50.303 40.4243 51.412 40.5365 52.4198 40.9636C53.4277 41.3906 54.289 42.1133 54.8949 43.0403C55.5009 43.9673 55.8243 45.057 55.8243 46.1718C55.8243 46.913 55.6813 47.6469 55.4034 48.3316C55.1255 49.0163 54.7183 49.6382 54.2049 50.1619C53.6915 50.6856 53.0821 51.1007 52.4116 51.3835C51.7411 51.6664 51.0225 51.8113 50.2971 51.8101Z" fill="white"/>
<path d="M51.2607 32.4543C54.6331 32.4568 57.8666 33.8273 60.2504 36.2647C62.6342 38.702 63.9732 42.0068 63.9732 45.4526" stroke="white" stroke-width="4.6" stroke-linecap="round" stroke-linejoin="round"/>
<defs>
<linearGradient id="paint0_linear" x1="11.1707" y1="69.263" x2="90.2757" y2="24.5654" gradientUnits="userSpaceOnUse">
<stop offset="0.02" stop-color="#FF0000"/>
<stop offset="1" stop-color="#9E005D"/>
</linearGradient>
<linearGradient id="paint1_linear" x1="1895.08" y1="3618.05" x2="5242.8" y2="3618.05" gradientUnits="userSpaceOnUse">
<stop offset="0.02" stop-color="#CE2929"/>
<stop offset="1" stop-color="#D22222"/>
</linearGradient>
</defs>
</svg>
